<svg width="132" height="132" viewBox="0 0 132 132" fill="none" xmlns="http://www.w3.org/2000/svg">
<path d="M65.4973 8.1848C65.8182 8.1848 66.1232 8.26505 66.412 8.42553L114.911 36.4304C115.473 36.7514 115.826 37.3612 115.826 38.0032V93.9968C115.826 94.6388 115.473 95.2486 114.911 95.5696L66.412 123.574C66.1392 123.735 65.8182 123.815 65.4973 123.815C65.1763 123.815 64.8714 123.735 64.5825 123.574L16.0996 95.5857C15.5379 95.2647 15.1848 94.6548 15.1848 94.0129V38.0032C15.1848 37.3612 15.5379 36.7514 16.0996 36.4304L64.5985 8.42553C64.8714 8.26505 65.1923 8.1848 65.4973 8.1848ZM65.4973 0C63.764 0 62.0468 0.449362 60.4901 1.33204L12.0072 29.3369C8.90979 31.1183 7 34.4243 7 38.0032V93.9968C7 97.5757 8.90979 100.866 12.0072 102.663L60.5061 130.668C62.0468 131.567 63.78 132 65.5133 132C67.2466 132 68.9638 131.551 70.5205 130.668L119.019 102.663C122.117 100.882 124.027 97.5757 124.027 93.9968V38.0032C124.027 34.4243 122.117 31.1343 119.019 29.3369L70.5044 1.34809C68.9638 0.449362 67.2305 0 65.4973 0Z" fill="#E57310"/>
<path d="M53.1394 37.3193H46.8002C46.3188 37.3193 45.9015 37.6243 45.741 38.0576L25.3593 93.9229C25.2309 94.292 25.5037 94.6771 25.8889 94.6771H32.2281C32.7095 94.6771 33.1268 94.3722 33.2873 93.9389L53.669 38.0736C53.7974 37.7206 53.5246 37.3193 53.1394 37.3193Z" fill="#E57310"/>
<path d="M61.3401 58.9874C61.1636 58.4899 60.4574 58.4899 60.2809 58.9874L56.9909 68.0228C56.8946 68.2795 56.8946 68.5524 56.9909 68.7931L66.1707 93.9574C66.3312 94.4067 66.7645 94.6956 67.2299 94.6956H73.5692C73.9543 94.6956 74.2271 94.3104 74.0988 93.9413L61.3401 58.9874Z" fill="#E57310"/>
<path d="M64.2124 37.3193H57.8732C57.3918 37.3193 56.9745 37.6243 56.814 38.0576L36.4323 93.9229C36.3039 94.292 36.5767 94.6771 36.9619 94.6771H43.3011C43.7825 94.6771 44.1998 94.3722 44.3603 93.9389L64.742 38.0736C64.8865 37.7206 64.6137 37.3193 64.2124 37.3193Z" fill="#E57310"/>
<path d="M66.8767 43.8028C66.7002 43.3053 65.994 43.3053 65.8175 43.8028L62.5275 52.8382C62.4312 53.095 62.4312 53.3678 62.5275 53.6085L77.2441 93.9548C77.4046 94.4042 77.8379 94.693 78.3033 94.693H84.6426C85.0277 94.693 85.3005 94.3079 85.1722 93.9387L66.8767 43.8028Z" fill="#E57310"/>
<path d="M105.103 37.3193H98.764C98.2826 37.3193 97.8653 37.6243 97.7048 38.0576L82.9882 78.4038C82.8919 78.6606 82.8919 78.9334 82.9882 79.1742L86.2782 88.2095C86.4547 88.707 87.1609 88.707 87.3374 88.2095L105.633 38.0736C105.777 37.7206 105.504 37.3193 105.103 37.3193Z" fill="#E57310"/>
<path d="M80.7576 73.0275C80.9342 73.5251 81.6403 73.5251 81.8168 73.0275L94.5594 38.0736C94.6878 37.7045 94.415 37.3193 94.0298 37.3193H87.6906C87.2092 37.3193 86.7919 37.6243 86.6314 38.0576L77.4516 63.2218C77.3553 63.4786 77.3553 63.7514 77.4516 63.9922L80.7576 73.0275Z" fill="#E57310"/>
</svg>
