<svg width="132" height="132" viewBox="0 0 132 132" fill="none" xmlns="http://www.w3.org/2000/svg">
<path d="M11.4453 40.1216V91.8784C11.4453 95.1845 13.2107 98.2337 16.0673 99.8867L60.8911 125.757C63.7478 127.41 67.2785 127.41 70.1352 125.757L114.959 99.8867C117.816 98.2337 119.581 95.1845 119.581 91.8784V40.1216C119.581 36.8156 117.816 33.7663 114.959 32.1133L70.1191 6.24293C67.2625 4.58992 63.7318 4.58992 60.8751 6.24293L16.0673 32.1133C13.1946 33.7663 11.4453 36.8316 11.4453 40.1216Z" fill="#213147"/>
<path d="M75.2868 76.0384L68.8995 93.5635C68.723 94.0449 68.723 94.5745 68.8995 95.072L79.8928 125.227L92.6194 117.877L77.3571 76.0384C77.004 75.0754 75.6399 75.0754 75.2868 76.0384Z" fill="#12AAFF"/>
<path d="M88.1096 46.5571C87.7565 45.5942 86.3924 45.5942 86.0393 46.5571L79.6519 64.0823C79.4754 64.5637 79.4754 65.0933 79.6519 65.5908L97.6585 114.972L110.385 107.622L88.1096 46.5571Z" fill="#12AAFF"/>
<path d="M65.4973 8.1848C65.8182 8.1848 66.1232 8.26505 66.412 8.42553L114.911 36.4304C115.473 36.7514 115.826 37.3612 115.826 38.0032V93.9968C115.826 94.6388 115.473 95.2486 114.911 95.5696L66.412 123.574C66.1392 123.735 65.8182 123.815 65.4973 123.815C65.1763 123.815 64.8714 123.735 64.5825 123.574L16.0996 95.5857C15.5379 95.2647 15.1848 94.6548 15.1848 94.0129V38.0032C15.1848 37.3612 15.5379 36.7514 16.0996 36.4304L64.5985 8.42553C64.8714 8.26505 65.1923 8.1848 65.4973 8.1848ZM65.4973 0C63.764 0 62.0468 0.449362 60.4901 1.33204L12.0072 29.3369C8.90979 31.1183 7 34.4243 7 38.0032V93.9968C7 97.5757 8.90979 100.866 12.0072 102.663L60.5061 130.668C62.0468 131.567 63.7801 132 65.5133 132C67.2466 132 68.9638 131.551 70.5205 130.668L119.019 102.663C122.117 100.882 124.027 97.5757 124.027 93.9968V38.0032C124.027 34.4243 122.117 31.1343 119.019 29.3369L70.5044 1.33204C68.9638 0.449362 67.2305 0 65.4973 0Z" fill="#9DCCED"/>
<path d="M33.4321 115.036L37.8937 102.823L46.8648 110.286L38.4714 117.941L33.4321 115.036Z" fill="#213147"/>
<path d="M61.4209 33.991H49.1277C48.2129 33.991 47.3784 34.5687 47.0574 35.4353L20.7056 107.686L33.4321 115.037L62.4481 35.4674C62.7209 34.7453 62.1913 33.991 61.4209 33.991Z" fill="white"/>
<path d="M82.9259 33.991H70.6327C69.7179 33.991 68.8834 34.5687 68.5624 35.4353L38.4712 117.941L51.1978 125.292L83.9691 35.4674C84.2258 34.7453 83.6962 33.991 82.9259 33.991Z" fill="white"/>
</svg>
