<svg width="132" height="132" viewBox="0 0 132 132" fill="none" xmlns="http://www.w3.org/2000/svg">
<path d="M108.28 18.9038H23.9788V101.542H108.28V18.9038Z" fill="white"/>
<path fill-rule="evenodd" clip-rule="evenodd" d="M132 65.9999C132 102.451 102.451 132 66 132C29.5493 132 0 102.451 0 65.9999C0 29.5492 29.5493 0 66 0C102.451 0 132 29.5492 132 65.9999ZM47.2977 92.2632H34.489C31.7976 92.2632 30.468 92.2632 29.6572 91.7444C28.7818 91.1768 28.2466 90.2365 28.1817 89.1989C28.1332 88.2422 28.7979 87.0748 30.1275 84.7401L61.7538 28.9943C63.0995 26.627 63.7805 25.4435 64.6398 25.0057C65.564 24.5356 66.6666 24.5356 67.5908 25.0057C68.4501 25.4435 69.1311 26.627 70.4768 28.9943L76.9785 40.3438L77.0117 40.4017C78.4651 42.9414 79.2023 44.2291 79.524 45.5808C79.8806 47.0562 79.8806 48.6127 79.524 50.0881C79.1998 51.4502 78.47 52.7473 76.9946 55.3253L60.3822 84.6915L60.3391 84.7668C58.8759 87.3272 58.1345 88.6248 57.1069 89.6043C55.9882 90.6743 54.6425 91.4525 53.1671 91.8903C51.8214 92.2632 50.3135 92.2632 47.2977 92.2632ZM79.644 92.2647H97.9979C100.706 92.2647 102.067 92.2647 102.878 91.7297C103.754 91.1621 104.305 90.2055 104.354 89.1679C104.401 88.2428 103.75 87.1205 102.476 84.9216C102.432 84.8466 102.388 84.7705 102.343 84.6929L93.15 68.9658L93.0453 68.7889C91.7535 66.604 91.101 65.5009 90.2639 65.0745C89.3397 64.6042 88.2535 64.6042 87.3293 65.0745C86.4861 65.5121 85.8051 66.6634 84.4594 68.9819L75.2988 84.709L75.2674 84.7633C73.9264 87.0781 73.2562 88.2349 73.3045 89.1842C73.3694 90.2218 73.9043 91.1785 74.78 91.7458C75.5744 92.2647 76.9362 92.2647 79.644 92.2647Z" fill="#E84142"/>
</svg>
