<svg width="132" height="132" viewBox="0 0 132 132" fill="none" xmlns="http://www.w3.org/2000/svg">
<g clip-path="url(#clip0_313_7)">
<path d="M66 132C102.451 132 132 102.451 132 66C132 29.5492 102.451 0 66 0C29.5492 0 0 29.5492 0 66C0 102.451 29.5492 132 66 132Z" fill="#FCFF52"/>
<path fill-rule="evenodd" clip-rule="evenodd" d="M102.923 28.8394H29.077V103.166H102.928V77.22H90.6735C86.4495 86.687 76.9402 93.2765 66.0581 93.2765C51.0576 93.2765 38.9083 80.9424 38.9083 65.9525C38.9083 50.9573 51.0576 38.7288 66.0581 38.7288C77.1514 38.7288 86.6607 45.5347 90.8847 55.2077H102.928V28.8394H102.923Z" fill="black"/>
</g>
<defs>
<clipPath id="clip0_313_7">
<rect width="132" height="132" fill="white"/>
</clipPath>
</defs>
</svg>
