<svg width="132" height="132" viewBox="0 0 132 132" fill="none" xmlns="http://www.w3.org/2000/svg">
<path fill-rule="evenodd" clip-rule="evenodd" d="M66.0004 15.0857L21.9538 40.5429V91.4573L66.0004 116.914L110.047 91.4573V40.5429L66.0004 15.0857ZM67.8502 2.2562C66.7055 1.59461 65.2951 1.59461 64.1504 2.2562L11.7794 32.5244C10.6347 33.1861 9.92969 34.4089 9.92969 35.7318V96.2683C9.92969 97.5914 10.6347 98.8141 11.7794 99.4756L64.1504 129.744C65.2951 130.405 66.7055 130.405 67.8502 129.744L120.221 99.4756C121.366 98.8141 122.071 97.5914 122.071 96.2683V35.7318C122.071 34.4089 121.366 33.1861 120.221 32.5244L67.8502 2.2562Z" fill="#FF9211"/>
<path d="M66.0004 33.5271L37.9075 49.7636V82.2367L65.8154 98.366C65.93 98.4322 66.0004 98.5545 66.0004 98.687V104.247C66.0004 104.531 65.692 104.71 65.4456 104.567L33.7453 86.2457C32.8869 85.7496 32.3578 84.8327 32.3578 83.8403V48.1598C32.3578 47.1674 32.8869 46.2504 33.7453 45.7541L64.6129 27.9141C65.4715 27.418 66.5293 27.418 67.3877 27.9141L99.2145 46.242C99.4593 46.3828 99.4615 46.7355 99.2189 46.8798C97.3405 47.995 96.3787 48.4911 94.2774 49.6608C94.1635 49.7242 94.0242 49.7235 93.9114 49.6586L66.0004 33.5271Z" fill="#FF9211"/>
<path d="M70.6251 66.6853C70.6251 66.5484 70.7005 66.4228 70.8213 66.3584L98.754 51.4754C99.0004 51.344 99.2977 51.5227 99.2977 51.8023V88.0083C99.2977 88.1406 99.2277 88.2624 99.1135 88.3287L71.181 104.565C70.9339 104.708 70.6251 104.53 70.6251 104.245V66.6853Z" fill="#FF9211"/>
</svg>
