<svg width="132" height="132" viewBox="0 0 132 132" fill="none" xmlns="http://www.w3.org/2000/svg">
<g clip-path="url(#clip0_313_18)">
<path d="M66 132C102.451 132 132 102.451 132 66C132 29.5492 102.451 0 66 0C29.5492 0 0 29.5492 0 66C0 102.451 29.5492 132 66 132Z" fill="#13B5EC"/>
<path fill-rule="evenodd" clip-rule="evenodd" d="M70.95 53.2125L85.8 44.55V61.875L70.95 53.2125ZM85.8 90.3375L66 101.888L46.2 90.3375V70.125L66 81.675L85.8 70.125V90.3375ZM46.2 44.55L61.05 53.2125L46.2 61.875V44.55ZM68.475 57.3375L83.325 66L68.475 74.6625V57.3375ZM63.525 74.6625L48.675 66L63.525 57.3375V74.6625ZM83.325 40.425L66 50.325L48.675 40.425L66 30.1125L83.325 40.425ZM41.25 38.775V92.8125L66 106.837L90.75 92.8125V38.775L66 24.75L41.25 38.775Z" fill="white"/>
</g>
<defs>
<clipPath id="clip0_313_18">
<rect width="132" height="132" fill="white"/>
</clipPath>
</defs>
</svg>
