<svg width="139" height="139" viewBox="0 0 139 139" fill="none" xmlns="http://www.w3.org/2000/svg">
<g filter="url(#filter0_d_17_3)">
<mask id="mask0_17_3" style="mask-type:luminance" maskUnits="userSpaceOnUse" x="3" y="0" width="132" height="131">
<path d="M134.204 0.144836H3.79575V130.553H134.204V0.144836Z" fill="white"/>
</mask>
<g mask="url(#mask0_17_3)">
<path d="M134.204 65.5117C134.204 29.5903 105.084 0.470276 69.1629 0.470276C33.2415 0.470276 4.1214 29.5903 4.1214 65.5117C4.1214 101.433 33.2415 130.553 69.1629 130.553C105.084 130.553 134.204 101.433 134.204 65.5117Z" fill="#B4F9BA"/>
<path d="M56.0511 33.2431L68.6241 25.9822C68.9822 25.7758 69.4263 25.7758 69.7844 25.9822L102.921 45.1138C103.279 45.3204 103.5 45.7026 103.503 46.1158L103.548 59.274C103.548 59.6906 103.327 60.0761 102.966 60.2827L90.4101 67.5332C89.639 67.9808 88.6716 67.4232 88.668 66.5314L88.6268 54.7226C88.6268 54.3096 88.403 53.9274 88.0449 53.7208L56.0511 35.2537C55.2765 34.8061 55.2765 33.6907 56.0511 33.2431Z" fill="#010101"/>
<path d="M47.9295 92.844L35.3598 85.5866C34.9984 85.38 34.778 84.9978 34.778 84.5813V46.3182C34.778 45.905 34.9984 45.5229 35.3563 45.3128L46.7313 38.6924C47.0928 38.4824 47.537 38.4824 47.8949 38.6924L60.4509 45.9429C61.222 46.3904 61.2254 47.5025 60.4543 47.9534L50.2499 53.8923C49.8918 54.0988 49.6714 54.481 49.6714 54.8975V91.8422C49.6714 92.7372 48.704 93.295 47.9295 92.8474V92.844Z" fill="#010101"/>
<path d="M103.547 70.0633V84.5781C103.547 84.9946 103.327 85.3768 102.965 85.5834L69.8286 104.715C69.4705 104.922 69.0298 104.922 68.6717 104.715L57.252 98.1738C56.8906 97.9672 56.6668 97.5816 56.6668 97.1649V82.6674C56.6668 81.7757 57.6307 81.2179 58.4053 81.6586L68.6512 87.5286C69.0091 87.7352 69.4499 87.7316 69.8078 87.5286L101.802 69.0546C102.576 68.607 103.544 69.1648 103.544 70.0599L103.547 70.0633Z" fill="#010101"/>
</g>
</g>
<defs>
<filter id="filter0_d_17_3" x="-1" y="0" width="140" height="140" filterUnits="userSpaceOnUse" color-interpolation-filters="sRGB">
<feFlood flood-opacity="0" result="BackgroundImageFix"/>
<feColorMatrix in="SourceAlpha" type="matrix" values="0 0 0 0 0 0 0 0 0 0 0 0 0 0 0 0 0 0 127 0" result="hardAlpha"/>
<feOffset dy="4"/>
<feGaussianBlur stdDeviation="2"/>
<feComposite in2="hardAlpha" operator="out"/>
<feColorMatrix type="matrix" values="0 0 0 0 0 0 0 0 0 0 0 0 0 0 0 0 0 0 0.25 0"/>
<feBlend mode="normal" in2="BackgroundImageFix" result="effect1_dropShadow_17_3"/>
<feBlend mode="normal" in="SourceGraphic" in2="effect1_dropShadow_17_3" result="shape"/>
</filter>
</defs>
</svg>
