<svg width="132" height="132" viewBox="0 0 132 132" fill="none" xmlns="http://www.w3.org/2000/svg">
<g clip-path="url(#clip0_317_42)">
<path d="M99 0H33C14.7746 0 0 14.7746 0 33V99C0 117.225 14.7746 132 33 132H99C117.225 132 132 117.225 132 99V33C132 14.7746 117.225 0 99 0Z" fill="#00193C"/>
<path d="M32.461 59.9345C32.461 56.909 33.4569 54.1575 35.1785 51.976L53.4035 70.1924C51.184 71.9134 48.4285 72.9094 45.441 72.9094C38.242 72.9054 32.423 67.0909 32.461 59.9345ZM86.6714 72.8674C93.8324 72.9054 99.6509 67.0865 99.6509 59.892C99.6509 56.909 98.6549 54.1535 96.9339 51.934L78.7089 70.1499C80.8904 71.8714 83.6459 72.8674 86.6714 72.8674ZM100.761 48.183C103.44 51.398 105.048 55.453 105.048 59.968C105.048 70.1074 96.8154 78.3359 86.6714 78.3359C82.1944 78.3359 78.0969 76.7279 74.8814 74.0489L66.037 82.8889L57.1925 74.0489C53.977 76.7279 49.918 78.3359 45.403 78.3359C35.2586 78.3359 27.026 70.1074 27.026 59.968C27.026 55.491 28.6337 51.394 31.3132 48.183L27.1779 44.052L23.2367 40.1105C18.6415 47.685 16 56.525 16 66.0189C16 93.6484 38.394 116 65.999 116C93.5999 116 115.998 93.6109 115.998 66.0189C116.074 56.491 113.433 47.651 108.837 40.1105L100.761 48.183ZM65.999 75.2384L26.334 35.5915C27.4438 34.1737 28.6295 32.7982 29.8575 31.4985C38.968 21.9707 51.7955 16 66.037 16C80.2784 16 93.1399 21.9707 102.216 31.4985C103.478 32.7602 104.668 34.178 105.664 35.5535L65.999 75.2384ZM35.2924 35.2497L66.0329 65.981L96.7734 35.2497C88.6209 27.0215 77.7464 22.5066 66.0329 22.5066C54.319 22.5066 43.487 27.0215 35.2924 35.2497Z" fill="white"/>
</g>
<defs>
<clipPath id="clip0_317_42">
<rect width="132" height="132" rx="66" fill="white"/>
</clipPath>
</defs>
</svg>
