<svg width="132" height="132" viewBox="0 0 132 132" fill="none" xmlns="http://www.w3.org/2000/svg">
<g clip-path="url(#clip0_337_107)">
<path d="M66 132C102.451 132 132 102.451 132 66C132 29.5492 102.451 0 66 0C29.5492 0 0 29.5492 0 66C0 102.451 29.5492 132 66 132Z" fill="url(#paint0_linear_337_107)"/>
<path d="M86.1168 95.5682C80.8896 95.5682 76.6656 91.3442 76.6656 86.117V68.693C85.272 68.0066 91.5024 66.2114 95.568 63.2018V86.117C95.568 91.3442 91.344 95.5682 86.1168 95.5682ZM76.6656 45.8834C76.6656 40.6562 80.8896 36.4322 86.1168 36.4322C91.344 36.4322 95.568 40.6562 95.568 45.8834V51.5858C95.4624 53.5922 95.04 55.6514 93.2976 57.4466C91.2384 59.5058 86.6448 61.8818 76.7184 62.7266V45.8834H76.6656ZM55.3344 86.117C55.3344 91.3442 51.1104 95.5682 45.8832 95.5682C40.656 95.5682 36.432 91.3442 36.432 86.117V80.837C36.5376 78.8834 37.0128 76.7714 38.9136 74.8706C41.0784 72.7058 45.6192 70.277 55.3344 69.3266V86.117ZM45.8832 36.4322C51.1104 36.4322 55.3344 40.6562 55.3344 45.8834V63.3602C46.7808 64.0994 40.5504 66.053 36.432 69.221V45.8834C36.432 40.6562 40.656 36.4322 45.8832 36.4322ZM101.429 49.2626V48.2594V45.8834C101.429 37.3826 94.5648 30.5186 86.064 30.5186C77.616 30.5186 70.6992 37.4354 70.6992 45.8834V62.9906C69.2208 63.0434 62.7264 62.9906 61.1952 63.0434V45.8834C61.1952 37.3826 54.3312 30.5186 45.8304 30.5186C37.3824 30.5186 30.4656 37.4354 30.4656 45.8834V80.5202C30.4128 81.4706 30.4128 82.3154 30.4656 83.0018V83.7938V86.1698C30.4656 94.6706 37.3296 101.535 45.8304 101.535C54.2784 101.535 61.1952 94.6178 61.1952 86.1698V69.0626C62.7264 69.0098 69.168 69.0626 70.6992 69.0098V86.1698C70.6992 94.6706 77.5632 101.535 86.064 101.535C94.512 101.535 101.429 94.6178 101.429 86.1698V52.0082C101.482 51.005 101.482 50.1074 101.429 49.3154V49.2626Z" fill="white"/>
</g>
<defs>
<linearGradient id="paint0_linear_337_107" x1="9.18804" y1="122.655" x2="124.028" y2="8.13204" gradientUnits="userSpaceOnUse">
<stop stop-color="#00AEE9"/>
<stop offset="1" stop-color="#69FABD"/>
</linearGradient>
<clipPath id="clip0_337_107">
<rect width="132" height="132" fill="white"/>
</clipPath>
</defs>
</svg>
