<svg width="132" height="132" viewBox="0 0 132 132" fill="none" xmlns="http://www.w3.org/2000/svg">
<path d="M27.192 46.3213L7.18081 36.1391C5.59681 39.199 4.27681 42.4172 3.22081 45.741L24.6048 52.6523C25.2912 50.4892 26.1888 48.3789 27.192 46.3741V46.3213Z" fill="black"/>
<path d="M44.1936 28.331L55.2816 47.4293C56.9184 46.4796 58.608 45.7938 60.456 45.2662L54.7008 23.9521C56.1792 23.5828 57.6576 23.2134 59.136 23.0024L55.5984 0.844147C52.1664 1.37172 48.7872 2.21585 45.5136 3.271L52.3776 24.2686C50.2128 24.9545 48.048 25.8513 46.0416 26.9065L35.9568 7.22784C32.8944 8.81057 29.9376 10.6043 27.1392 12.6619L40.392 30.8106C41.6064 29.9137 42.8736 29.1223 44.1936 28.331Z" fill="black"/>
<path d="M103.646 44.1583L84.5328 55.2374C85.4832 56.8729 86.1696 58.5611 86.6976 60.4077L108.029 54.6571C108.398 56.1343 108.768 57.6115 108.979 59.0887L131.155 55.5539C130.627 52.1247 129.782 48.7482 128.726 45.4772L107.712 52.3357C106.973 50.1726 106.128 48.0623 105.072 46.0048L124.714 35.928C123.13 32.8681 121.334 29.9137 119.275 27.1175L101.112 40.3597C102.01 41.5731 102.802 42.8393 103.594 44.1583H103.646Z" fill="black"/>
<path d="M95.8848 7.17507C92.8224 5.59233 89.6016 4.27339 86.2752 3.21823L79.3584 24.5851C81.5232 25.271 83.6352 26.1679 85.6416 27.1703L95.832 7.17507H95.8848Z" fill="black"/>
<path d="M87.912 27.9616L76.7184 47.4292C78.3552 48.3789 79.8336 49.4868 81.1536 50.8585L112.622 19.3093C110.194 16.8825 107.554 14.6139 104.755 12.6091L91.7664 30.494C90.552 29.5971 89.232 28.753 87.912 28.0144V27.9616Z" fill="black"/>
<path d="M27.9312 44.1055L47.3616 55.343C48.312 53.7075 49.4736 52.2302 50.7936 50.9113L19.272 19.4677C16.8432 21.8945 14.5728 24.5324 12.5664 27.3286L30.4656 40.307C29.568 41.5204 28.7232 42.8394 27.984 44.1583L27.9312 44.1055Z" fill="black"/>
<path d="M72.8112 22.6331L76.1904 0.791367C72.8112 0.263789 69.432 0 66 0H65.9472V44.5276H66C67.9008 44.5276 69.7488 44.7914 71.544 45.2662L77.2992 23.5827C75.8208 23.2134 74.3424 22.8969 72.8112 22.6331Z" fill="black"/>
<path d="M45.2496 60.4604L23.5488 54.7098C23.1792 56.1871 22.8624 57.6643 22.5984 59.1943L0.792 55.8178C0.264 59.1943 0 62.6235 0 66.0528H44.5632C44.5632 64.1535 44.8272 62.307 45.3024 60.5132L45.2496 60.4604Z" fill="black"/>
<path d="M104.808 85.6787L124.819 95.8609C126.403 92.801 127.723 89.5827 128.779 86.259L107.395 79.3477C106.709 81.5108 105.811 83.6211 104.808 85.6259V85.6787Z" fill="black"/>
<path d="M87.8064 103.616L76.7184 84.518C75.0816 85.4676 73.392 86.1535 71.544 86.6811L77.2992 107.995C75.8208 108.365 74.3424 108.734 72.864 108.945L76.4016 131.103C79.8336 130.576 83.2128 129.731 86.4864 128.676L79.6224 107.679C81.7872 106.993 83.952 106.096 85.9584 105.041L96.0432 124.719C99.1056 123.137 102.062 121.343 104.861 119.285L91.608 101.137C90.3936 102.034 89.1264 102.825 87.8064 103.616Z" fill="black"/>
<path d="M28.3536 87.8417L47.4672 76.7626C46.5168 75.1271 45.8304 73.4388 45.3024 71.5923L23.9712 77.3429C23.6016 75.8657 23.232 74.3885 23.0208 72.9113L0.844803 76.446C1.3728 79.8753 2.2176 83.2518 3.2736 86.5228L24.288 79.6643C25.0272 81.8273 25.872 83.9904 26.928 85.9952L7.2864 96.0719C8.8704 99.1319 10.6656 102.086 12.7248 104.882L30.888 91.6403C29.9904 90.4268 29.1456 89.1607 28.4064 87.8417H28.3536Z" fill="black"/>
<path d="M36.1152 124.825C39.1776 126.408 42.3984 127.727 45.7248 128.782L52.6416 107.415C50.4768 106.729 48.3648 105.832 46.3584 104.83L36.168 124.825H36.1152Z" fill="black"/>
<path d="M44.088 104.038L55.2816 84.5707C53.6448 83.6211 52.1664 82.5132 50.8464 81.1415L19.3776 112.691C21.8064 115.118 24.4464 117.386 27.2448 119.391L40.2336 101.506C41.448 102.403 42.768 103.247 44.088 103.986V104.038Z" fill="black"/>
<path d="M104.069 87.8945L84.6384 76.6571C83.688 78.2926 82.5264 79.7698 81.2064 81.0887L112.728 112.532C115.157 110.106 117.427 107.468 119.434 104.671L101.534 91.693C102.432 90.4796 103.277 89.1607 104.016 87.8417L104.069 87.8945Z" fill="black"/>
<path d="M60.456 86.7338L54.7008 108.417C56.1792 108.787 57.6576 109.103 59.1888 109.367L55.8096 131.209C59.1888 131.736 62.568 132 66 132H66.0528V87.4724H66C64.0992 87.4724 62.2512 87.2086 60.456 86.7338Z" fill="black"/>
<path d="M87.4368 66C87.4368 67.8993 87.1728 69.7458 86.6976 71.5396L108.398 77.2902C108.768 75.8129 109.085 74.3357 109.349 72.8058L131.208 76.235C131.736 72.8585 132 69.4293 132 66H87.4368Z" fill="black"/>
</svg>
