<svg width="132" height="132" viewBox="0 0 132 132" fill="none" xmlns="http://www.w3.org/2000/svg">
<g clip-path="url(#clip0_11_23)">
<path d="M132 0H0V132H132V0Z" fill="black"/>
<path d="M65.3694 122.705V103.308C63.4357 103.308 61.4599 103.138 59.5261 102.841L56.4994 121.983C59.442 122.493 62.4268 122.705 65.3694 122.705ZM74.1975 122.026C77.1401 121.559 80.0408 120.88 82.8573 119.946L76.9299 101.483C75.0803 102.077 73.1465 102.544 71.2127 102.841L74.1975 122.026ZM47.8815 119.946L53.8089 101.525C51.9592 100.931 50.1516 100.167 48.386 99.2759L39.642 116.55C42.2905 117.866 45.065 119.012 47.8815 119.946ZM91.0548 116.55C93.7032 115.192 96.2255 113.622 98.6217 111.882L87.2713 96.2199C85.7159 97.3659 84.0344 98.427 82.2688 99.2759L91.0548 116.55ZM32.0752 111.839L43.4255 96.1775C41.8701 95.0315 40.3567 93.7582 38.9694 92.3575L25.3491 106.067C27.451 108.147 29.721 110.099 32.0752 111.839ZM105.306 106.152L105.432 106.024C107.534 103.945 109.468 101.653 111.191 99.2759L95.637 87.8585C94.5019 89.4289 93.1987 90.9569 91.8535 92.3151L91.6433 92.5273L98.2013 98.7665L105.306 106.152ZM19.5898 99.2334L35.144 87.816C34.0089 86.2456 32.958 84.5479 32.0752 82.8077L14.9236 91.5935C16.2688 94.2675 17.8242 96.8141 19.5898 99.2334ZM115.815 91.636C117.161 89.0045 118.296 86.2032 119.22 83.3595L100.892 77.4173C100.303 79.2849 99.5465 81.1099 98.6637 82.8501L115.815 91.636ZM11.5185 83.3595L29.8471 77.3749C29.2586 75.5074 28.7962 73.5974 28.5019 71.645L9.45861 74.6585C9.92103 77.5871 10.6357 80.5157 11.5185 83.3595ZM121.28 74.7009C121.743 71.7723 121.995 68.7588 121.995 65.7878H102.741C102.741 67.7402 102.573 69.735 102.279 71.6874L121.28 74.7009ZM28.0395 65.7453C28.0395 63.7929 28.2077 61.798 28.5019 59.8456L9.45861 56.8321C8.99619 59.7607 8.786 62.7742 8.74396 65.7453H28.0395ZM102.279 59.8881L121.322 56.8746C120.86 53.946 120.187 51.0173 119.262 48.1736L100.934 54.1157C101.522 56.0257 101.985 57.9357 102.279 59.8881ZM29.8471 54.1157C30.4357 52.2482 31.1924 50.4231 32.0752 48.6829L14.9236 39.8971C13.5784 42.5286 12.4433 45.3299 11.5185 48.1736L29.8471 54.1157ZM98.7057 48.7254L115.899 39.9395C114.554 37.2656 112.999 34.7189 111.233 32.2997L95.637 43.717C96.772 45.2874 97.8229 46.9852 98.7057 48.7254ZM35.144 43.6746C36.279 42.1042 37.5822 40.5762 38.9694 39.1755L39.0115 39.1331L25.3911 25.4238L25.3491 25.4662C23.2471 27.5884 21.3134 29.8379 19.5898 32.2572L35.144 43.6746ZM91.8535 39.2604L95.9733 35.0585L105.432 25.5511L105.39 25.5087C103.288 23.4289 101.06 21.4765 98.7057 19.7363L87.3554 35.398C88.9108 36.544 90.4242 37.8173 91.7694 39.218L91.8535 39.2604ZM43.4675 35.3132C45.0229 34.1672 46.7045 33.1485 48.4701 32.2572L39.7261 14.9826C37.0777 16.3408 34.5554 17.9112 32.1592 19.6514L43.4675 35.3132ZM82.3949 32.2997L91.1809 15.0251C88.5325 13.6669 85.8 12.5209 82.9834 11.5871L77.014 30.0077C78.8217 30.6443 80.6293 31.4083 82.3949 32.2997ZM53.893 30.0077C55.7427 29.4135 57.6764 28.9466 59.6102 28.6495L56.6255 9.50737C53.7248 9.97425 50.7822 10.6534 47.9656 11.5871L53.893 30.0077ZM71.2548 28.6495L74.2815 9.50737C71.3809 9.04049 68.3962 8.78583 65.4535 8.78583V28.1826C67.3873 28.1826 69.3631 28.3524 71.2548 28.6495Z" fill="white"/>
<path d="M65.3694 104.199V84.7177C63.7299 84.7177 62.1325 84.5055 60.535 84.081L55.4904 102.884C58.7274 103.732 62.0484 104.199 65.3694 104.199ZM75.2484 102.884C78.4853 102.035 81.5541 100.761 84.4547 99.0637L74.7019 82.2135C73.3146 83.0199 71.8012 83.6566 70.2458 84.081L75.2484 102.884ZM46.3261 99.0637L56.0789 82.2135C54.6917 81.4071 53.3885 80.3884 52.2114 79.2425L52.0433 79.0727L45.9057 85.5666L38.3388 92.9093L38.4649 93.0367C40.8191 95.3711 43.4675 97.4084 46.3261 99.0637ZM92.3159 93.0367C94.67 90.6598 96.7299 88.0283 98.3694 85.1421L81.5121 75.3801C80.7133 76.7807 79.7044 78.054 78.5274 79.2425L92.3159 93.0367ZM32.3694 85.0997L49.2267 75.3801C48.428 73.9794 47.7974 72.4939 47.377 70.9235L28.586 75.9318C29.4267 79.1151 30.7299 82.2135 32.3694 85.0997ZM102.195 75.9743C103.036 72.7486 103.498 69.438 103.498 66.1273H84.0344C84.0344 67.7402 83.8242 69.3955 83.4038 70.9659L102.195 75.9743ZM46.7885 66.0849C46.7885 64.472 46.9987 62.8167 47.4191 61.2463L28.586 56.238C27.7452 59.4637 27.2828 62.7743 27.2828 66.0849H46.7885ZM83.3618 61.2888L102.195 56.2804C101.354 53.0547 100.051 49.9563 98.4114 47.0701L81.5541 56.7897C82.3108 58.2328 82.9414 59.7183 83.3618 61.2888ZM49.2688 56.7897C50.0675 55.4315 51.0344 54.1158 52.2114 52.9698L52.2535 52.9273L45.2751 45.9666L38.5911 39.0482L38.4649 39.1756C36.1108 41.51 34.093 44.1839 32.4114 47.0277L49.2688 56.7897ZM78.5274 52.9698L85.4216 46.0515L92.484 39.3454L92.3159 39.1756C89.9618 36.7987 87.3133 34.8039 84.4547 33.1061L74.7019 49.9563C76.0891 50.7627 77.3503 51.7389 78.5274 52.8849V52.9698ZM56.0789 49.9563C57.4662 49.1499 58.9796 48.5132 60.535 48.0888L55.5745 29.2862C52.3375 30.1351 49.2688 31.4084 46.3681 33.1061L56.0789 49.9563ZM70.2038 48.1312L75.2484 29.3286C72.0535 28.4798 68.7325 28.0129 65.4114 28.0129V47.4946C67.0089 47.4946 68.6484 47.7068 70.2038 48.1312Z" fill="white"/>
</g>
<defs>
<clipPath id="clip0_11_23">
<rect width="132" height="132" rx="66" fill="white"/>
</clipPath>
</defs>
</svg>
