<svg width="132" height="132" viewBox="0 0 132 132" fill="none" xmlns="http://www.w3.org/2000/svg">
<rect width="132" height="132" rx="66" fill="white"/>
<path fill-rule="evenodd" clip-rule="evenodd" d="M120.355 59.1239C120.61 61.2724 120.751 63.4633 120.751 65.6897C120.751 95.89 96.2397 120.379 65.9963 120.379C43.9752 120.379 24.997 107.396 16.3004 88.6737L25.0607 84.2706C32.1368 99.7984 47.8034 110.591 65.9963 110.591C90.8194 110.591 110.951 90.4903 110.951 65.6897C110.951 65.2303 110.944 64.7709 110.93 64.3115L120.355 59.1239ZM65.9963 11C89.0574 11 108.793 25.2413 116.86 45.4055L107.491 48.388C100.712 32.1818 84.6844 20.7887 65.9963 20.7887C41.1731 20.7887 21.0415 40.8892 21.0415 65.6897C21.0415 65.9936 21.0485 66.3046 21.0556 66.6084L11.8849 74.1003C11.4603 71.358 11.241 68.5522 11.241 65.6897C11.248 35.4824 35.7599 11 65.9963 11Z" fill="#010E35"/>
<path fill-rule="evenodd" clip-rule="evenodd" d="M5 87.5566L58.5523 43.8076L56.3304 61.9998L87.5857 44.3094L86.0007 61.5827L127 48.543L71.3955 79.1319L75.5493 61.7242L43.4235 80.5312L45.5464 67.1805L5 87.5566Z" fill="#010E35"/>
</svg>
