<svg width="133" height="132" viewBox="0 0 133 132" fill="none" xmlns="http://www.w3.org/2000/svg">
<path d="M132.46 66.0006C132.46 29.549 102.911 0 66.4606 0C30.0102 0 0.459961 29.549 0.459961 66.0006C0.459961 102.452 30.009 132 66.4606 132C102.912 132 132.46 102.451 132.46 66.0006Z" fill="#00D2FF"/>
<path d="M111.001 62.7057C111.001 62.5485 108.145 60.7237 106.642 59.7708C105.992 59.3636 105.389 58.8863 104.844 58.3475C103.718 57.235 101.843 55.2911 101.231 54.095C100.841 53.33 101.001 51.9534 101.305 50.6395C101.833 48.3341 101.434 45.9134 100.192 43.9003L98.2372 40.7161C97.3373 39.2637 96.6138 37.7091 96.0821 36.0854C95.4068 33.9973 94.231 32.1061 92.6572 30.5766C89.4767 27.4735 80.672 25.9459 73.3582 25.7015C72.906 25.5662 72.4464 25.4571 71.9816 25.3749C68.7237 24.8198 65.2522 23.9246 62.1356 24.5067C57.5073 25.3663 52.8299 26.8178 49.3387 30.401C48.6339 31.1231 47.5348 31.4645 46.7759 32.1484C45.2716 33.5054 43.2467 33.5054 41.9106 35.0133C41.1284 35.8913 40.7674 38.7611 38.7179 39.8577C35.3262 41.6752 32.8162 43.6768 31.9947 44.6997C31.3733 45.4672 30.8895 46.3661 30.2865 47.1557C29.6725 47.9612 26.7487 49.3243 25.9002 50.1765C25.0516 51.0287 23.912 53.104 24.4266 55.5563C24.4745 55.7798 24.5138 55.964 24.5494 56.1138C24.8846 57.3602 25.7933 59.6197 25.5833 60.6574C25.3377 61.8854 22.1843 71.0228 29.2317 73.4579C30.6979 73.9663 31.3193 74.9548 31.4801 76.4591C31.628 77.6808 31.9804 78.8689 32.5227 79.9736C33.1637 81.3244 34.4273 82.0612 34.5304 82.1521C34.9553 82.5205 36.9324 84.5909 37.0957 84.8917C39.5959 89.5126 38.8935 91.8212 43.6789 93.3918C44.9049 93.7965 46.0824 94.3356 47.1898 94.9993C48.5426 95.8123 49.9913 96.4542 51.5024 96.91C51.5467 96.9223 51.6142 96.9456 51.6916 96.9739C52.755 94.4049 53.8332 91.9686 54.9077 89.6747C46.2933 80.8418 48.5577 70.9455 49.3817 68.2942C49.4058 68.2152 49.4494 68.1436 49.5085 68.0859C49.5676 68.0282 49.6403 67.9863 49.7198 67.9641C49.7994 67.942 49.8833 67.9403 49.9637 67.9591C50.0441 67.9779 50.1185 68.0168 50.1799 68.072C51.9887 69.6561 57.4852 75.3687 56.8393 85.6838C58.7402 81.8868 60.5895 78.5492 62.278 75.6978C56.062 65.1629 60.6939 55.9272 62.1552 53.4933C62.197 53.4201 62.257 53.359 62.3293 53.3157C62.4016 53.2724 62.4838 53.2484 62.568 53.246C62.6523 53.2437 62.7357 53.2631 62.8103 53.3023C62.8849 53.3415 62.9481 53.3992 62.9939 53.47C64.26 55.3513 67.7045 61.5194 65.5727 70.4051C67.1188 68.0425 68.3738 66.2926 69.1941 65.1948C71.4155 50.5056 82.5091 45.6809 85.4244 44.6641C85.5025 44.6356 85.5866 44.6274 85.6688 44.6403C85.7509 44.6532 85.8285 44.6867 85.8941 44.7378C85.9598 44.7888 86.0114 44.8557 86.0442 44.9322C86.0769 45.0087 86.0897 45.0922 86.0813 45.1749C85.8124 48.2117 83.9397 59.9108 71.0729 65.9169C69.5256 67.9541 68.0361 70.0981 66.6116 72.3024C71.5321 68.4576 78.4273 66.6536 84.1571 68.0376C84.238 68.056 84.313 68.0942 84.3754 68.1489C84.4377 68.2036 84.4855 68.273 84.5142 68.3508C84.543 68.4286 84.5519 68.5123 84.5402 68.5945C84.5284 68.6766 84.4963 68.7545 84.4469 68.821C82.8001 71.0019 76.2488 78.3564 63.9063 76.6716C61.8188 80.1873 59.9092 83.7509 58.2122 87.1573C63.5429 83.1259 71.3308 81.5811 77.3688 83.6109C77.4493 83.6366 77.5221 83.6822 77.5804 83.7434C77.6387 83.8045 77.6808 83.8794 77.7027 83.961C77.7245 84.0427 77.7256 84.1285 77.7056 84.2107C77.6857 84.2928 77.6454 84.3687 77.5886 84.4312C75.7122 86.45 68.488 93.0787 56.6096 90.4483C55.4959 92.8012 53.8356 96.6706 53.0252 98.5825C52.7464 99.2407 52.4897 99.9051 52.2626 100.582C51.737 102.139 51.0272 104.081 50.1848 106.027C50.0654 106.304 50.0044 106.603 50.0055 106.905C50.0066 107.207 50.0698 107.505 50.1912 107.782C50.3126 108.058 50.4896 108.307 50.7112 108.512C50.9327 108.717 51.1941 108.874 51.4791 108.974C60.8523 112.32 71.0289 112.697 80.6242 110.054C80.9412 109.964 81.2338 109.804 81.4802 109.585C81.7267 109.367 81.9205 109.095 82.0474 108.791C82.2476 108.317 82.4453 107.867 82.4453 107.867C82.4453 107.867 86.5934 98.2387 87.2049 94.0427C87.3781 92.72 87.7887 91.4396 88.417 90.2629C88.7407 89.6751 89.2087 89.1793 89.7769 88.8222C90.3451 88.4652 90.9949 88.2586 91.665 88.222C94.8221 88.055 101.545 87.6142 103.992 86.8393C107.242 85.8066 105.833 79.8852 105.658 79.2479C105.482 78.6106 107.222 77.1259 107.58 76.2602C107.937 75.3945 106.702 75.0973 106.196 74.1456C105.69 73.1939 107.45 72.5124 107.7 71.6491C107.951 70.7858 107.129 69.8378 106.795 69.2005C106.573 68.7463 106.418 68.2624 106.335 67.7637C106.335 67.7637 108.712 66.0225 109.975 64.9234C111.239 63.8244 111.005 62.9193 111.001 62.7057Z" fill="black"/>
</svg>
