<svg width="132" height="132" viewBox="0 0 132 132" fill="none" xmlns="http://www.w3.org/2000/svg">
<g clip-path="url(#clip0_378_62)">
<path d="M132 66C132 29.5492 102.451 0 66 0C29.5492 0 0 29.5492 0 66C0 102.451 29.5492 132 66 132C102.451 132 132 102.451 132 66Z" fill="#1D1338"/>
<mask id="mask0_378_62" style="mask-type:luminance" maskUnits="userSpaceOnUse" x="17" y="17" width="98" height="98">
<path d="M115 17H17V115H115V17Z" fill="white"/>
</mask>
<g mask="url(#mask0_378_62)">
<path d="M65.3467 18.7114C45.8121 18.7114 29.9883 34.5482 29.9753 54.0829C29.9753 56.3173 30.1843 58.5517 30.6025 60.7469L35.1758 57.6239C43.2118 52.1098 56.2393 52.1098 64.2622 57.6239L69.0577 60.9167L71.6579 62.7069C78.8969 67.6722 90.6307 67.6722 97.857 62.7069L99.9867 61.2565C103.907 42.1138 91.5715 23.4154 72.4289 19.4823C70.103 18.9989 67.7379 18.7637 65.3598 18.7637L65.3467 18.7114Z" fill="#F2B705"/>
</g>
<mask id="mask1_378_62" style="mask-type:luminance" maskUnits="userSpaceOnUse" x="17" y="17" width="98" height="98">
<path d="M115 17H17V115H115V17Z" fill="white"/>
</mask>
<g mask="url(#mask1_378_62)">
<path d="M85.2212 75.3293C80.1644 75.4209 75.199 74.0097 70.9654 71.2787L63.5828 66.2219C55.39 61.1913 45.0542 61.1913 36.8484 66.2219L32.079 69.4885C31.1382 70.1419 29.8446 69.8937 29.1912 68.9529C28.538 68.0121 28.7862 66.7185 29.727 66.0651L34.4964 62.7985C44.1134 56.8269 56.2916 56.8269 65.9086 62.7985L73.2912 67.8553C80.5956 72.3371 89.8076 72.3371 97.1115 67.8553L99.908 65.9345C100.849 65.2811 102.143 65.5293 102.796 66.4701C103.449 67.4109 103.201 68.7045 102.26 69.3579L99.4635 71.2787C95.2302 73.9965 90.2648 75.4077 85.2212 75.3293Z" fill="#53CBC8"/>
</g>
<mask id="mask2_378_62" style="mask-type:luminance" maskUnits="userSpaceOnUse" x="17" y="17" width="98" height="98">
<path d="M115 17H17V115H115V17Z" fill="white"/>
</mask>
<g mask="url(#mask2_378_62)">
<path d="M50.0588 90.1865V70.1945C50.0458 69.7764 50.0588 69.3583 50.111 68.9401C50.2418 67.8033 51.2086 66.9409 52.3586 66.9409C53.4692 66.9801 54.3708 67.8295 54.4754 68.9401C54.5668 69.6327 54.5798 70.3383 54.5538 71.0308V110.884C54.606 112.177 53.5998 113.249 52.3062 113.302C52.2932 113.302 52.2802 113.302 52.267 113.302C50.9996 113.236 50.0326 112.152 50.098 110.884C50.098 110.845 50.098 110.805 50.111 110.78V97.4774L50.0588 90.1865Z" fill="#53CBC8"/>
</g>
<mask id="mask3_378_62" style="mask-type:luminance" maskUnits="userSpaceOnUse" x="17" y="17" width="98" height="98">
<path d="M115 17H17V115H115V17Z" fill="white"/>
</mask>
<g mask="url(#mask3_378_62)">
<path d="M45.8641 80.1246V90.0552C45.8641 91.7539 44.9364 92.8515 43.6689 92.8515C42.4145 92.8515 41.4084 91.6624 41.3953 90.0552V70.1808C41.3953 68.443 42.4145 67.267 43.7342 67.3846C45.054 67.5022 45.838 68.4952 45.851 70.2462C45.8641 73.4998 45.8641 76.8056 45.8641 80.1246Z" fill="#53CBC8"/>
</g>
<mask id="mask4_378_62" style="mask-type:luminance" maskUnits="userSpaceOnUse" x="17" y="17" width="98" height="98">
<path d="M115 17H17V115H115V17Z" fill="white"/>
</mask>
<g mask="url(#mask4_378_62)">
<path d="M58.7612 80.112V73.1475C58.7612 71.5272 59.6235 70.4819 60.9041 70.4819C62.2239 70.5472 63.2561 71.671 63.1907 72.9907C63.1907 73.0168 63.1907 73.056 63.1907 73.0822C63.2299 77.8254 63.2299 82.5686 63.1907 87.3248C63.1907 88.9451 62.2631 89.9251 60.9172 89.899C59.5844 89.8859 58.7743 88.8928 58.7612 87.2334V80.112Z" fill="#53CBC8"/>
</g>
<mask id="mask5_378_62" style="mask-type:luminance" maskUnits="userSpaceOnUse" x="17" y="17" width="98" height="98">
<path d="M115 17H17V115H115V17Z" fill="white"/>
</mask>
<g mask="url(#mask5_378_62)">
<path d="M32.7453 81.5494V74.5719C32.7453 72.9516 33.6077 71.9062 34.8883 71.9062C36.208 71.9716 37.2403 73.0953 37.1749 74.4151C37.1749 74.4412 37.1749 74.4804 37.1749 74.5065C37.2141 79.2628 37.2141 84.006 37.1749 88.7622C37.1749 90.3825 36.2472 91.3495 34.9144 91.3364C33.5947 91.3233 32.7584 90.3303 32.7453 88.6708V81.5494Z" fill="#53CBC8"/>
</g>
<mask id="mask6_378_62" style="mask-type:luminance" maskUnits="userSpaceOnUse" x="17" y="17" width="98" height="98">
<path d="M115 17H17V115H115V17Z" fill="white"/>
</mask>
<g mask="url(#mask6_378_62)">
<path d="M69.5934 75.6167C70.8086 75.6167 71.7886 76.5967 71.7886 77.8119V81.6013C71.7886 82.8165 70.8086 83.7965 69.5934 83.7965C68.3782 83.7965 67.3982 82.8165 67.3982 81.6013V77.8119C67.4112 76.6098 68.3912 75.6167 69.5934 75.6167Z" fill="#53CBC8"/>
</g>
<mask id="mask7_378_62" style="mask-type:luminance" maskUnits="userSpaceOnUse" x="17" y="17" width="98" height="98">
<path d="M115 17H17V115H115V17Z" fill="white"/>
</mask>
<g mask="url(#mask7_378_62)">
<path d="M78.2827 78.9487C79.4979 78.9487 80.4779 79.9287 80.4779 81.1439V102.43C80.4779 103.645 79.4979 104.625 78.2827 104.625C77.0675 104.625 76.0875 103.645 76.0875 102.43V81.1439C76.0875 79.9287 77.0675 78.9487 78.2827 78.9487Z" fill="#53CBC8"/>
</g>
<mask id="mask8_378_62" style="mask-type:luminance" maskUnits="userSpaceOnUse" x="17" y="17" width="98" height="98">
<path d="M115 17H17V115H115V17Z" fill="white"/>
</mask>
<g mask="url(#mask8_378_62)">
<path d="M86.9197 79.7729C88.1349 79.7729 89.1149 80.753 89.1149 81.9682V100.053C89.1149 101.268 88.1349 102.248 86.9197 102.248C85.7045 102.248 84.7245 101.268 84.7245 100.053V81.9682C84.7245 80.753 85.7045 79.7729 86.9197 79.7729Z" fill="#53CBC8"/>
</g>
<mask id="mask9_378_62" style="mask-type:luminance" maskUnits="userSpaceOnUse" x="17" y="17" width="98" height="98">
<path d="M115 17H17V115H115V17Z" fill="white"/>
</mask>
<g mask="url(#mask9_378_62)">
<path d="M95.6614 77.7075C96.8761 77.7075 97.8561 78.6875 97.8561 79.9027V87.7035C97.8561 88.9187 96.8761 89.8987 95.6614 89.8987C94.4462 89.8987 93.4662 88.9187 93.4662 87.7035V79.9027C93.4662 78.6875 94.4592 77.7075 95.6614 77.7075Z" fill="#53CBC8"/>
</g>
</g>
<defs>
<clipPath id="clip0_378_62">
<rect width="132" height="132" fill="white"/>
</clipPath>
</defs>
</svg>
