<svg width="132" height="132" viewBox="0 0 132 132" fill="none" xmlns="http://www.w3.org/2000/svg">
<rect width="132" height="132" rx="66" fill="#151E46"/>
<g clip-path="url(#clip0_307_38)">
<path d="M85.4043 28.7121C96.2979 33.4578 103.787 44.9832 103.106 56.5087C83.3617 56.5087 63.6171 56.5087 44.5532 56.5087C44.5532 49.051 47.2766 40.9154 52.7234 35.4917C60.2128 26.0002 74.5107 23.2883 85.4043 28.7121Z" fill="#5FC0C1"/>
<path d="M84.0426 102.61C85.4043 102.61 86.0852 103.288 86.0852 103.966C86.0852 104.644 85.4043 105.322 84.0426 105.322H52.7235C51.3618 105.322 50.6809 104.644 50.6809 103.966C50.6809 103.288 51.3618 102.61 52.7235 102.61H84.0426Z" fill="#E1177C"/>
<path d="M45.9149 106C47.2766 106 47.9574 105.322 47.9574 103.966C47.9574 102.61 47.2766 101.932 45.9149 101.932C44.5532 101.932 43.8723 102.61 43.8723 103.966C43.8723 105.322 44.5532 106 45.9149 106Z" fill="#E1177C"/>
<path d="M64.9788 97.8642C66.3405 97.8642 67.0214 97.1862 67.0214 95.8303C67.0214 94.4744 66.3405 93.7964 64.9788 93.7964C63.6171 93.7964 62.9363 94.4744 62.9363 95.8303C62.9363 97.1862 63.6171 97.8642 64.9788 97.8642Z" fill="#E1177C"/>
<path d="M101.745 93.7964C103.106 93.7964 103.787 94.4744 103.787 95.8303C103.787 97.1862 103.106 97.8642 101.745 97.8642H71.1063C69.7446 97.8642 69.0637 97.1862 69.0637 95.8303C69.0637 94.4744 69.7446 93.7964 71.1063 93.7964H101.745Z" fill="#E1177C"/>
<path d="M24.1278 89.7289C25.4895 89.7289 26.1703 89.051 26.1703 87.695C26.1703 86.3391 25.4895 85.6611 24.1278 85.6611C22.7661 85.6611 22.0852 86.3391 22.0852 87.695C22.0852 89.051 23.4469 89.7289 24.1278 89.7289Z" fill="#E1177C"/>
<path d="M54.766 85.6611C56.1277 85.6611 56.8086 86.3391 56.8086 87.695C56.8086 89.051 56.1277 89.7289 54.766 89.7289H29.5745C28.2128 89.7289 27.532 89.051 27.532 87.695C27.532 86.3391 28.2128 85.6611 29.5745 85.6611H54.766Z" fill="#E1177C"/>
<path d="M111.958 85.6611C113.319 85.6611 114 86.3391 114 87.695C114 89.051 113.319 89.7289 111.958 89.7289H61.5745C60.2128 89.7289 59.532 89.051 59.532 87.695C59.532 86.3391 60.2128 85.6611 61.5745 85.6611H111.958Z" fill="#E1177C"/>
<path d="M102.426 77.5254C103.787 77.5254 104.468 78.2034 104.468 79.5593C104.468 80.9152 103.787 81.5932 102.426 81.5932H40.4681C39.7872 82.2712 38.4255 80.9152 38.4255 79.5593C38.4255 78.2034 39.1064 77.5254 40.4681 77.5254H102.426Z" fill="#E1177C"/>
<path d="M33.6595 82.2712C35.0212 82.2712 35.702 81.5932 35.702 80.2373C35.702 78.8813 35.0212 77.5254 33.6595 77.5254C32.2978 77.5254 31.6169 78.8813 31.6169 79.5593C31.6169 80.2373 32.2978 82.2712 33.6595 82.2712Z" fill="#E1177C"/>
<path d="M89.4893 70.0679C90.851 70.0679 91.5318 70.7458 91.5318 72.1018C91.5318 73.4577 90.851 74.1357 89.4893 74.1357H27.5318C26.851 74.1357 25.4893 73.4577 25.4893 72.1018C25.4893 70.7458 26.1701 70.0679 27.5318 70.0679H89.4893Z" fill="#E1177C"/>
<path d="M20.0426 74.1357C21.4043 74.1357 22.0851 73.4577 22.0851 72.1018C22.0851 70.7458 21.4043 70.0679 20.0426 70.0679C18.6809 70.0679 18 70.7458 18 72.1018C18 73.4577 18.6809 74.1357 20.0426 74.1357Z" fill="#E1177C"/>
<path d="M33.6595 65.9999C35.0212 65.9999 35.702 65.322 35.702 63.966C35.702 62.6101 35.0212 61.9321 33.6595 61.9321C32.2978 61.9321 31.6169 63.2881 31.6169 63.966C31.6169 65.322 32.2978 65.9999 33.6595 65.9999Z" fill="#E1177C"/>
<path d="M108.553 61.9321C109.915 61.9321 110.596 62.6101 110.596 63.966C110.596 65.322 109.915 65.9999 108.553 65.9999H41.149C39.7873 65.9999 39.1064 65.322 39.1064 63.966C39.1064 62.6101 39.7873 61.9321 41.149 61.9321H108.553Z" fill="#E1177C"/>
</g>
<defs>
<clipPath id="clip0_307_38">
<rect width="96" height="80" fill="white" transform="translate(18 26)"/>
</clipPath>
</defs>
</svg>
