<svg width="132" height="132" viewBox="0 0 132 132" fill="none" xmlns="http://www.w3.org/2000/svg">
<rect width="132" height="132" rx="66" fill="#111216"/>
<path d="M41.3173 34.7853L65.9998 21L90.6822 34.7853L81.6078 39.8781L65.9998 31.1854L50.3916 39.8781L41.3173 34.7853ZM90.6822 52.1707L81.6078 47.0781L65.9998 55.7707L50.3916 47.0781L41.3173 52.1707V62.3563L56.9252 71.049V88.4343L65.9998 93.5269L75.0742 88.4343V71.049L90.6822 62.3563V52.1707ZM90.6822 79.7417V69.5564L81.6078 74.649V84.8343L90.6822 79.7417ZM97.1254 83.3416L81.5174 92.0343V102.22L106.2 88.4343V60.8632L97.1254 65.9564V83.3416ZM88.051 43.4781L97.1254 48.5707V58.7563L106.2 53.6634V43.4781L97.1254 38.3854L88.051 43.4781ZM56.9252 95.7221V105.907L65.9998 111L75.0742 105.907V95.7221L65.9998 100.815L56.9252 95.7221ZM41.3173 79.7417L50.3916 84.8343V74.649L41.3173 69.5564V79.7417ZM56.9252 43.4781L65.9998 48.5707L75.0742 43.4781L65.9998 38.3854L56.9252 43.4781ZM34.8743 48.5707L43.9487 43.4781L34.8743 38.3854L25.7998 43.4781V53.6634L34.8743 58.7563V48.5707ZM34.8743 65.9564L25.7998 60.8632V88.4343L50.4823 102.22V92.0343L34.8743 83.3416V65.9564Z" fill="#F0B90B"/>
</svg>
