<svg width="132" height="132" viewBox="0 0 132 132" fill="none" xmlns="http://www.w3.org/2000/svg">
<g clip-path="url(#clip0_325_15)">
<mask id="mask0_325_15" style="mask-type:luminance" maskUnits="userSpaceOnUse" x="0" y="0" width="132" height="132">
<path d="M132 0H0V132H132V0Z" fill="white"/>
</mask>
<g mask="url(#mask0_325_15)">
<path d="M66 132C102.45 132 132 102.45 132 66C132 29.5492 102.45 0 66 0C29.5492 0 0 29.5492 0 66C0 102.45 29.5492 132 66 132Z" fill="#7F3CE0"/>
<path d="M50.0701 42.5508C46.7184 42.5508 44.0015 45.2194 44.0015 48.5116V57.4527H50.0701V48.5116H57.6556V57.4527H63.7246V48.5116C63.7246 45.2194 61.0074 42.5508 57.6556 42.5508H50.0701Z" fill="white"/>
<path d="M74.3443 42.5508C70.9926 42.5508 68.2754 45.2194 68.2754 48.5116V57.4527H74.3443V48.5116H81.9297V57.4527H87.9982V48.5116C87.9982 45.2194 85.2815 42.5508 81.9297 42.5508H74.3443Z" fill="white"/>
<path d="M44.0015 81.2946C44.0015 84.5866 46.7184 87.2553 50.0701 87.2553H57.6556C61.0074 87.2553 63.7246 84.5866 63.7246 81.2946V72.3535H57.6556V81.2946H50.0701V72.3535H44.0015V81.2946Z" fill="white"/>
<path d="M68.2754 81.2946C68.2754 84.5866 70.9926 87.2553 74.3443 87.2553H81.9297C85.2815 87.2553 87.9982 84.5866 87.9982 81.2946V72.3535H81.9297V81.2946H74.3443V72.3535H68.2754V81.2946Z" fill="white"/>
<path fill-rule="evenodd" clip-rule="evenodd" d="M70.5515 22.318C67.7351 20.7208 64.2649 20.7208 61.4486 22.318L30.0715 40.1115C27.255 41.7087 25.52 44.6603 25.52 47.8546V83.4416C25.52 86.6359 27.255 89.5876 30.0715 91.1848L61.4486 108.978C64.2649 110.576 67.7351 110.576 70.5515 108.978L101.929 91.1848C104.745 89.5876 106.48 86.6359 106.48 83.4416V47.8546C106.48 44.6603 104.745 41.7087 101.929 40.1115L70.5515 22.318ZM64.4831 27.48C65.4217 26.9476 66.5784 26.9476 67.517 27.48L98.8944 45.2735C99.8334 45.8059 100.412 46.79 100.412 47.8546V56.1151C100.289 56.2749 100.125 56.4849 99.9205 56.7304C99.4083 57.3451 98.6691 58.1603 97.761 58.9669C95.8523 60.6635 93.647 61.9224 91.4998 61.9224H40.0335C36.6389 61.9224 33.7374 63.4667 31.5886 65.1087V47.8546C31.5886 46.79 32.1669 45.8059 33.1057 45.2735L64.4831 27.48ZM31.5886 73.6738V83.4416C31.5886 84.5062 32.1669 85.4903 33.1057 86.0226L64.4831 103.816C65.4217 104.349 66.5784 104.349 67.517 103.816L98.8944 86.0226C99.8334 85.4903 100.412 84.5062 100.412 83.4416V64.5542C98.1605 66.2538 95.0902 67.8831 91.4998 67.8831H40.0335C38.0624 67.8831 35.9888 69.0955 34.1491 70.7977C33.2806 71.6012 32.5725 72.4149 32.0816 73.0291C31.8732 73.2902 31.7075 73.5108 31.5886 73.6738Z" fill="white"/>
</g>
</g>
<defs>
<clipPath id="clip0_325_15">
<rect width="132" height="132" fill="white"/>
</clipPath>
</defs>
</svg>
