<svg width="132" height="132" viewBox="0 0 132 132" fill="none" xmlns="http://www.w3.org/2000/svg">
<g clip-path="url(#clip0_243_13)">
<path d="M132 0H0V132H132V0Z" fill="#FFEEDA"/>
<path d="M99.119 77.8919V32.8811C99.0595 29.1054 96.0568 26.073 92.2812 26.073H45.3082C35.1704 26.2216 27.0244 34.5162 27.0244 44.6838C27.0244 48.1027 27.946 51.046 29.3433 53.6325C30.5325 55.773 32.4055 57.7946 34.2487 59.3108C34.7839 59.7271 34.5163 59.5487 36.1217 60.5298C38.3217 61.8676 40.8487 62.5514 40.8487 62.5514L40.819 89.4865C40.8785 90.7649 40.9974 91.9838 41.3541 93.1433C42.3947 96.9487 45.0406 99.8622 48.6082 101.259C50.0947 101.854 51.7893 102.241 53.6028 102.27L91.1217 102.389C98.5839 102.389 104.649 96.3243 104.649 88.8325C104.678 84.373 102.449 80.3892 99.119 77.8919Z" fill="#FFEEDA"/>
<path d="M100.041 89.1595C99.892 93.946 95.938 97.8109 91.092 97.8109L65.2866 97.7217C67.338 95.3433 68.5866 92.2514 68.5866 88.8622C68.5866 83.5703 65.4353 79.9136 65.4353 79.9136H91.1218C96.0569 79.9136 100.07 83.9271 100.07 88.8622L100.041 89.1595Z" fill="#EBC28E"/>
<path d="M36.7163 55.5055C33.7433 52.6812 31.6623 49.0541 31.6623 44.7136V44.2676C31.9001 36.8947 37.965 30.9487 45.3379 30.7406H92.3109C93.5298 30.8001 94.5109 31.6622 94.5109 32.9109V72.6595C95.5812 72.8379 96.1163 72.9866 97.1568 73.3731C97.9893 73.6704 99.119 74.3244 99.119 74.3244V32.9109C99.0595 29.1352 96.0568 26.1028 92.2812 26.1028H45.3082C35.1704 26.2514 27.0244 34.546 27.0244 44.7136C27.0244 50.6298 29.7298 55.6839 34.1298 59.2217C34.4271 59.4595 34.7244 59.7866 35.4974 59.7866C36.865 59.7866 37.846 58.6866 37.7866 57.4974C37.7866 56.4866 37.3406 56.1298 36.7163 55.5055Z" fill="#101010"/>
<path d="M91.0921 75.2757H54.257C51.7894 75.3054 49.7975 77.2973 49.7975 79.7648V85.0567C49.857 87.4946 51.938 89.5756 54.4353 89.5756H57.1705V85.0567H54.4056V79.8838C54.4056 79.8838 55.0894 79.8838 55.8921 79.8838C60.5597 79.8838 63.9786 84.1946 63.9786 88.8324C63.9786 92.9351 60.2326 98.1675 53.9894 97.7513C48.4597 97.3946 45.457 92.4594 45.457 88.8324V43.9405C45.457 41.9189 43.7921 40.254 41.7705 40.254H38.084V44.8621H40.8191V88.8621C40.6705 97.8108 47.1813 102.3 53.9894 102.3L91.1218 102.419C98.584 102.419 104.649 96.354 104.649 88.8621C104.679 81.3702 98.584 75.2757 91.0921 75.2757ZM100.041 89.1594C99.8921 93.9459 95.938 97.8108 91.0921 97.8108L65.2867 97.7216C67.338 95.3432 68.5867 92.2513 68.5867 88.8621C68.5867 83.5702 65.4353 79.9135 65.4353 79.9135H91.1218C96.057 79.9135 100.07 83.927 100.07 88.8621L100.041 89.1594Z" fill="#101010"/>
<path d="M81.1623 45.6947H53.3948V41.0865H81.1623C82.411 41.0865 83.4515 42.0974 83.4515 43.3757C83.4813 44.6541 82.4704 45.6947 81.1623 45.6947Z" fill="#101010"/>
<path d="M81.1623 67.3081H53.3948V62.7297H81.1623C82.411 62.7297 83.4515 63.7405 83.4515 65.0189C83.4813 66.2676 82.4704 67.3081 81.1623 67.3081Z" fill="#101010"/>
<path d="M86.0677 56.4865H53.3948V51.8784H86.038C87.2867 51.8784 88.3272 52.8892 88.3272 54.1676C88.3867 55.446 87.3461 56.4865 86.0677 56.4865Z" fill="#101010"/>
</g>
<defs>
<clipPath id="clip0_243_13">
<rect width="132" height="132" fill="white"/>
</clipPath>
</defs>
</svg>
