<svg width="132" height="132" viewBox="0 0 132 132" fill="none" xmlns="http://www.w3.org/2000/svg">
<rect width="132" height="132" rx="66" fill="#06DFCC"/>
<path fill-rule="evenodd" clip-rule="evenodd" d="M45.5388 36.108C59.3273 22.3697 81.3862 22.6739 94.8084 36.7873L86.0853 45.4784C77.3754 36.3749 63.1049 36.1951 54.1785 45.0892C45.252 53.983 45.0435 68.5891 53.6997 77.7463L44.8756 86.5379C31.4534 72.4247 31.7503 49.8464 45.5388 36.108ZM85.4613 95.8918C71.6727 109.63 49.6141 109.326 36.1919 95.213L44.9155 86.5211C53.6256 95.6246 67.8961 95.8042 76.8224 86.9103C85.749 78.0163 85.9577 63.4103 77.3012 54.2533L86.1246 45.4622C99.5468 59.5755 99.2494 82.1535 85.4613 95.8918Z" fill="#01131F"/>
</svg>
