<svg width="132" height="132" viewBox="0 0 132 132" fill="none" xmlns="http://www.w3.org/2000/svg">
<path fill-rule="evenodd" clip-rule="evenodd" d="M32.4495 16.6782C55.2797 -5.99 91.8034 -5.48808 114.027 17.799L99.5839 32.1393C85.1626 17.1186 61.5344 16.822 46.7545 31.4971C31.9747 46.172 31.6293 70.272 45.9617 85.3814L31.3514 99.8875C9.12774 76.6007 9.61931 39.3465 32.4495 16.6782ZM98.5506 115.322C75.7203 137.99 39.1971 137.488 16.9734 114.202L31.4175 99.8597C45.8391 114.881 69.4673 115.177 84.247 100.502C99.027 85.8269 99.3726 61.727 85.0397 46.6179L99.649 32.1127C121.873 55.3996 121.38 92.6532 98.5506 115.322Z" fill="#00E0CA"/>
</svg>
