<svg width="131" height="132" viewBox="0 0 131 132" fill="none" xmlns="http://www.w3.org/2000/svg">
<path d="M65.7113 131.083C101.749 131.083 130.963 101.868 130.963 65.8309C130.963 29.7933 101.749 0.579102 65.7113 0.579102C29.6737 0.579102 0.459473 29.7933 0.459473 65.8309C0.459473 101.868 29.6737 131.083 65.7113 131.083Z" fill="#F3BA2F"/>
<path d="M49.8715 59.3223L65.7113 43.4825L81.5594 59.3305L90.7762 50.1137L65.7113 25.0488L40.6546 50.1055L49.8715 59.3223ZM24.929 65.8312L34.1458 56.6144L43.3626 65.8312L34.1458 75.048L24.929 65.8312ZM49.8715 72.3401L65.7113 88.1799L81.5594 72.3319L90.7762 81.5447L65.7113 106.614L40.6546 81.5569L40.6424 81.5447L49.8715 72.3401ZM88.0601 65.8312L97.2769 56.6144L106.494 65.8312L97.2769 75.048L88.0601 65.8312ZM75.0587 65.823H75.0668V65.8312L65.7113 75.1867L56.3681 65.8475L56.3518 65.8312L56.3681 65.819L58.0035 64.1795L58.7987 63.3843L65.7113 56.4757L75.0627 65.8271L75.0587 65.823Z" fill="white"/>
</svg>
