<svg width="132" height="132" viewBox="0 0 132 132" fill="none" xmlns="http://www.w3.org/2000/svg">
<g clip-path="url(#clip0_258_8)">
<path d="M66 132C102.451 132 132 102.451 132 66C132 29.5492 102.451 0 66 0C29.5492 0 0 29.5492 0 66C0 102.451 29.5492 132 66 132Z" fill="#FF0420"/>
<path d="M46.7544 83.5297C42.8208 83.5297 39.6 82.6057 37.092 80.7577C34.6104 78.8833 33.3696 76.1905 33.3696 72.7321C33.3696 71.9929 33.4488 71.1217 33.6072 70.0657C34.0296 67.6897 34.6368 64.8385 35.4288 61.4857C37.6728 52.4041 43.4808 47.8633 52.8264 47.8633C55.3608 47.8633 57.6576 48.2857 59.664 49.1569C61.6704 49.9753 63.2544 51.2425 64.416 52.9321C65.5776 54.5953 66.1584 56.5753 66.1584 58.8721C66.1584 59.5585 66.0792 60.4297 65.9208 61.4857C65.4192 64.4161 64.8384 67.2937 64.1256 70.0657C62.964 74.5801 60.984 77.9857 58.1328 80.2297C55.308 82.4473 51.5064 83.5297 46.7544 83.5297ZM47.4672 76.4017C49.3152 76.4017 50.8728 75.8473 52.1664 74.7649C53.4864 73.6825 54.4368 72.0193 54.9912 69.7489C55.7568 66.6337 56.3376 63.9409 56.7336 61.6177C56.8656 60.9313 56.9448 60.2185 56.9448 59.4793C56.9448 56.4697 55.3872 54.9649 52.2456 54.9649C50.3976 54.9649 48.8136 55.5193 47.4936 56.6017C46.2 57.6841 45.276 59.3473 44.7216 61.6177C44.1144 63.8353 43.5336 66.5281 42.9264 69.7489C42.7944 70.4089 42.7152 71.0953 42.7152 71.8345C42.6888 74.8969 44.2992 76.4017 47.4672 76.4017Z" fill="white"/>
<path d="M68.4551 83.0543C68.0855 83.0543 67.8215 82.9487 67.6103 82.7111C67.4519 82.4471 67.3991 82.1567 67.4519 81.8135L74.2895 49.6055C74.3423 49.2359 74.5271 48.9455 74.8439 48.7079C75.1343 48.4703 75.4511 48.3647 75.7943 48.3647H88.9679C92.6375 48.3647 95.5679 49.1303 97.7855 50.6351C100.03 52.1663 101.165 54.3575 101.165 57.2351C101.165 58.0535 101.059 58.9247 100.874 59.8223C100.056 63.6239 98.3927 66.4223 95.8583 68.2439C93.3767 70.0655 89.9711 70.9631 85.6415 70.9631H78.9623L76.6919 81.8135C76.6127 82.1831 76.4543 82.4735 76.1375 82.7111C75.8471 82.9487 75.5303 83.0543 75.1871 83.0543H68.4551ZM85.9847 64.1255C87.3839 64.1255 88.5719 63.7559 89.6015 62.9903C90.6575 62.2247 91.3439 61.1423 91.6871 59.7167C91.7927 59.1623 91.8455 58.6607 91.8455 58.2383C91.8455 57.2879 91.5551 56.5487 91.0007 56.0471C90.4463 55.5191 89.4695 55.2551 88.1231 55.2551H82.1831L80.3087 64.1255H85.9847Z" fill="white"/>
</g>
<defs>
<clipPath id="clip0_258_8">
<rect width="132" height="132" fill="white"/>
</clipPath>
</defs>
</svg>
