<svg width="132" height="132" viewBox="0 0 132 132" fill="none" xmlns="http://www.w3.org/2000/svg">
<path d="M65.974 0C102.442 0 132 29.5526 132 66.013C132 102.473 102.442 132 66 132C29.5325 132 1.71051e-05 102.447 1.71051e-05 66.013C-0.0259569 29.5526 29.5325 0 65.974 0Z" fill="#8247E5"/>
<mask id="mask0_136_75" style="mask-type:luminance" maskUnits="userSpaceOnUse" x="22" y="28" width="87" height="77">
<path d="M108.779 28.541H22.2598V104.344H108.779V28.541Z" fill="white"/>
</mask>
<g mask="url(#mask0_136_75)">
<path d="M87.6103 51.6274C86.0259 50.7184 83.9999 50.7184 82.2077 51.6274L69.5843 59.1064L61.0129 63.8587L48.6233 71.3118C47.0389 72.2207 45.0129 72.2207 43.2207 71.3118L33.5324 65.4169C31.948 64.5079 30.8311 62.6901 30.8311 60.6645V49.3421C30.8311 47.5243 31.7402 45.7324 33.5324 44.5898L43.2207 38.9286C44.8051 38.0196 46.8311 38.0196 48.6233 38.9286L58.3116 44.8235C59.896 45.7324 61.0129 47.5502 61.0129 49.5758V57.0549L69.5843 52.0688V44.382C69.5843 42.5642 68.6752 40.7724 66.883 39.6297L48.8571 28.9825C47.2727 28.0736 45.2467 28.0736 43.4545 28.9825L24.9869 39.8634C23.1947 40.7724 22.2856 42.5902 22.2856 44.382V65.6506C22.2856 67.4684 23.1947 69.2603 24.9869 70.4029L43.2467 81.0501C44.8311 81.9591 46.8571 81.9591 48.6493 81.0501L61.0389 73.8048L69.6103 68.8188L81.9999 61.5735C83.5843 60.6645 85.6103 60.6645 87.4025 61.5735L97.0908 67.2347C98.6752 68.1436 99.7921 69.9614 99.7921 71.987V83.3094C99.7921 85.1273 98.883 86.9191 97.0908 88.0617L87.6363 93.723C86.0519 94.6319 84.0259 94.6319 82.2337 93.723L72.5194 88.0617C70.935 87.1528 69.8181 85.335 69.8181 83.3094V76.0641L61.2467 81.0501V88.5292C61.2467 90.347 62.1558 92.1389 63.948 93.2815L82.2077 103.929C83.7921 104.838 85.8181 104.838 87.6103 103.929L105.87 93.2815C107.454 92.3726 108.571 90.5548 108.571 88.5292V67.0269C108.571 65.2091 107.662 63.4173 105.87 62.2746L87.6103 51.6274Z" fill="white"/>
</g>
</svg>
